<mxfile host="65bd71144e">
    <diagram id="nQ0hv01hjVvx6b70h0gR" name="Page-1">
        <mxGraphModel dx="1803" dy="823" grid="1" gridSize="10" guides="1" tooltips="1" connect="1" arrows="1" fold="1" page="1" pageScale="1" pageWidth="5000" pageHeight="10000" math="0" shadow="0">
            <root>
                <mxCell id="0"/>
                <mxCell id="1" parent="0"/>
                <mxCell id="2" value="generateTree(1,4)" style="rounded=1;whiteSpace=wrap;html=1;" parent="1" vertex="1">
                    <mxGeometry x="2415" y="420" width="170" height="80" as="geometry"/>
                </mxCell>
                <mxCell id="4" value="Example with 1 2 3 4&amp;nbsp;" style="text;html=1;align=center;verticalAlign=middle;whiteSpace=wrap;rounded=0;" parent="1" vertex="1">
                    <mxGeometry x="2375" y="310" width="250" height="30" as="geometry"/>
                </mxCell>
                <mxCell id="13" value="1" style="ellipse;whiteSpace=wrap;html=1;aspect=fixed;" parent="1" vertex="1">
                    <mxGeometry x="2030" y="560" width="60" height="60" as="geometry"/>
                </mxCell>
                <mxCell id="18" value="" style="endArrow=classic;html=1;exitX=0;exitY=1;exitDx=0;exitDy=0;" parent="1" source="13" edge="1">
                    <mxGeometry width="50" height="50" relative="1" as="geometry">
                        <mxPoint x="2440" y="650" as="sourcePoint"/>
                        <mxPoint x="1990" y="680" as="targetPoint"/>
                    </mxGeometry>
                </mxCell>
                <mxCell id="19" value="" style="endArrow=classic;html=1;exitX=1;exitY=1;exitDx=0;exitDy=0;" parent="1" source="13" edge="1">
                    <mxGeometry width="50" height="50" relative="1" as="geometry">
                        <mxPoint x="2440" y="650" as="sourcePoint"/>
                        <mxPoint x="2130" y="680" as="targetPoint"/>
                    </mxGeometry>
                </mxCell>
                <mxCell id="35" value="3" style="ellipse;whiteSpace=wrap;html=1;aspect=fixed;" parent="1" vertex="1">
                    <mxGeometry x="2760" y="560" width="60" height="60" as="geometry"/>
                </mxCell>
                <mxCell id="36" value="" style="endArrow=classic;html=1;exitX=0;exitY=1;exitDx=0;exitDy=0;" parent="1" source="35" edge="1">
                    <mxGeometry width="50" height="50" relative="1" as="geometry">
                        <mxPoint x="3170" y="650" as="sourcePoint"/>
                        <mxPoint x="2720" y="680" as="targetPoint"/>
                    </mxGeometry>
                </mxCell>
                <mxCell id="37" value="" style="endArrow=classic;html=1;exitX=1;exitY=1;exitDx=0;exitDy=0;" parent="1" source="35" edge="1">
                    <mxGeometry width="50" height="50" relative="1" as="geometry">
                        <mxPoint x="3170" y="650" as="sourcePoint"/>
                        <mxPoint x="2860" y="680" as="targetPoint"/>
                    </mxGeometry>
                </mxCell>
                <mxCell id="38" value="4" style="ellipse;whiteSpace=wrap;html=1;aspect=fixed;" parent="1" vertex="1">
                    <mxGeometry x="2960" y="560" width="60" height="60" as="geometry"/>
                </mxCell>
                <mxCell id="39" value="" style="endArrow=classic;html=1;exitX=0;exitY=1;exitDx=0;exitDy=0;" parent="1" source="38" edge="1">
                    <mxGeometry width="50" height="50" relative="1" as="geometry">
                        <mxPoint x="3370" y="650" as="sourcePoint"/>
                        <mxPoint x="2920" y="680" as="targetPoint"/>
                    </mxGeometry>
                </mxCell>
                <mxCell id="40" value="" style="endArrow=classic;html=1;exitX=1;exitY=1;exitDx=0;exitDy=0;" parent="1" source="38" edge="1">
                    <mxGeometry width="50" height="50" relative="1" as="geometry">
                        <mxPoint x="3370" y="650" as="sourcePoint"/>
                        <mxPoint x="3060" y="680" as="targetPoint"/>
                    </mxGeometry>
                </mxCell>
                <mxCell id="44" value="2" style="ellipse;whiteSpace=wrap;html=1;aspect=fixed;" parent="1" vertex="1">
                    <mxGeometry x="2110" y="1980" width="60" height="60" as="geometry"/>
                </mxCell>
                <mxCell id="45" value="2" style="endArrow=classic;html=1;exitX=0;exitY=1;exitDx=0;exitDy=0;" parent="1" source="44" edge="1">
                    <mxGeometry width="50" height="50" relative="1" as="geometry">
                        <mxPoint x="2520" y="2070" as="sourcePoint"/>
                        <mxPoint x="2070" y="2100" as="targetPoint"/>
                    </mxGeometry>
                </mxCell>
                <mxCell id="46" value="" style="endArrow=classic;html=1;exitX=1;exitY=1;exitDx=0;exitDy=0;" parent="1" source="44" edge="1">
                    <mxGeometry width="50" height="50" relative="1" as="geometry">
                        <mxPoint x="2520" y="2070" as="sourcePoint"/>
                        <mxPoint x="2210" y="2100" as="targetPoint"/>
                    </mxGeometry>
                </mxCell>
                <mxCell id="47" value="generateTree(1,0) = [NULL]" style="rounded=1;whiteSpace=wrap;html=1;" parent="1" vertex="1">
                    <mxGeometry x="1820" y="690" width="170" height="80" as="geometry"/>
                </mxCell>
                <mxCell id="48" value="generateTree(2,4)" style="rounded=1;whiteSpace=wrap;html=1;" parent="1" vertex="1">
                    <mxGeometry x="2130" y="680" width="170" height="80" as="geometry"/>
                </mxCell>
                <mxCell id="50" value="2" style="ellipse;whiteSpace=wrap;html=1;aspect=fixed;" parent="1" vertex="1">
                    <mxGeometry x="2185" y="790" width="60" height="60" as="geometry"/>
                </mxCell>
                <mxCell id="51" value="2" style="endArrow=classic;html=1;exitX=0;exitY=1;exitDx=0;exitDy=0;" parent="1" source="50" edge="1">
                    <mxGeometry width="50" height="50" relative="1" as="geometry">
                        <mxPoint x="2595" y="880" as="sourcePoint"/>
                        <mxPoint x="2145" y="910" as="targetPoint"/>
                    </mxGeometry>
                </mxCell>
                <mxCell id="52" value="" style="endArrow=classic;html=1;exitX=1;exitY=1;exitDx=0;exitDy=0;" parent="1" source="50" edge="1">
                    <mxGeometry width="50" height="50" relative="1" as="geometry">
                        <mxPoint x="2595" y="880" as="sourcePoint"/>
                        <mxPoint x="2285" y="910" as="targetPoint"/>
                    </mxGeometry>
                </mxCell>
                <mxCell id="53" value="generateTree(2,1) = [NULL]" style="rounded=1;whiteSpace=wrap;html=1;" parent="1" vertex="1">
                    <mxGeometry x="1975" y="910" width="170" height="80" as="geometry"/>
                </mxCell>
                <mxCell id="54" value="generateTree(3,4)" style="rounded=1;whiteSpace=wrap;html=1;" parent="1" vertex="1">
                    <mxGeometry x="2280" y="910" width="170" height="80" as="geometry"/>
                </mxCell>
                <mxCell id="55" value="3" style="ellipse;whiteSpace=wrap;html=1;aspect=fixed;" parent="1" vertex="1">
                    <mxGeometry x="2335" y="1020" width="60" height="60" as="geometry"/>
                </mxCell>
                <mxCell id="56" value="" style="endArrow=classic;html=1;exitX=0;exitY=1;exitDx=0;exitDy=0;" parent="1" source="55" edge="1">
                    <mxGeometry width="50" height="50" relative="1" as="geometry">
                        <mxPoint x="2745" y="1110" as="sourcePoint"/>
                        <mxPoint x="2295" y="1140" as="targetPoint"/>
                    </mxGeometry>
                </mxCell>
                <mxCell id="57" value="" style="endArrow=classic;html=1;exitX=1;exitY=1;exitDx=0;exitDy=0;" parent="1" source="55" edge="1">
                    <mxGeometry width="50" height="50" relative="1" as="geometry">
                        <mxPoint x="2745" y="1110" as="sourcePoint"/>
                        <mxPoint x="2435" y="1140" as="targetPoint"/>
                    </mxGeometry>
                </mxCell>
                <mxCell id="58" value="generateTree(3,2&lt;span style=&quot;font-family: monospace; font-size: 0px; text-align: start; text-wrap-mode: nowrap;&quot;&gt;%3CmxGraphModel%3E%3Croot%3E%3CmxCell%20id%3D%220%22%2F%3E%3CmxCell%20id%3D%221%22%20parent%3D%220%22%2F%3E%3CmxCell%20id%3D%222%22%20value%3D%22generateTree(3%2C4)%22%20style%3D%22rounded%3D1%3BwhiteSpace%3Dwrap%3Bhtml%3D1%3B%22%20vertex%3D%221%22%20parent%3D%221%22%3E%3CmxGeometry%20x%3D%222280%22%20y%3D%22910%22%20width%3D%22170%22%20height%3D%2280%22%20as%3D%22geometry%22%2F%3E%3C%2FmxCell%3E%3C%2Froot%3E%3C%2FmxGraphModel%3E&lt;/span&gt;) = [NULL]" style="rounded=1;whiteSpace=wrap;html=1;" parent="1" vertex="1">
                    <mxGeometry x="2130" y="1140" width="170" height="80" as="geometry"/>
                </mxCell>
                <mxCell id="59" value="generateTree(4,4)" style="rounded=1;whiteSpace=wrap;html=1;" parent="1" vertex="1">
                    <mxGeometry x="2430" y="1140" width="170" height="80" as="geometry"/>
                </mxCell>
                <mxCell id="60" value="4" style="ellipse;whiteSpace=wrap;html=1;aspect=fixed;" parent="1" vertex="1">
                    <mxGeometry x="2485" y="1240" width="60" height="60" as="geometry"/>
                </mxCell>
                <mxCell id="61" value="" style="endArrow=classic;html=1;exitX=0;exitY=1;exitDx=0;exitDy=0;" parent="1" source="60" edge="1">
                    <mxGeometry width="50" height="50" relative="1" as="geometry">
                        <mxPoint x="2900" y="1330" as="sourcePoint"/>
                        <mxPoint x="2450" y="1360" as="targetPoint"/>
                    </mxGeometry>
                </mxCell>
                <mxCell id="62" value="" style="endArrow=classic;html=1;exitX=1;exitY=1;exitDx=0;exitDy=0;entryX=0;entryY=0;entryDx=0;entryDy=0;" parent="1" source="60" target="63" edge="1">
                    <mxGeometry width="50" height="50" relative="1" as="geometry">
                        <mxPoint x="2900" y="1330" as="sourcePoint"/>
                        <mxPoint x="2590" y="1360" as="targetPoint"/>
                    </mxGeometry>
                </mxCell>
                <mxCell id="63" value="generateTree(5,4) = [NULL]" style="rounded=1;whiteSpace=wrap;html=1;" parent="1" vertex="1">
                    <mxGeometry x="2570" y="1360" width="170" height="80" as="geometry"/>
                </mxCell>
                <mxCell id="64" value="generateTree(4,3) = [NULL]" style="rounded=1;whiteSpace=wrap;html=1;" parent="1" vertex="1">
                    <mxGeometry x="2280" y="1360" width="170" height="80" as="geometry"/>
                </mxCell>
                <mxCell id="65" value="" style="endArrow=classic;html=1;exitX=0.5;exitY=1;exitDx=0;exitDy=0;entryX=0.5;entryY=0;entryDx=0;entryDy=0;" parent="1" source="54" target="55" edge="1">
                    <mxGeometry width="50" height="50" relative="1" as="geometry">
                        <mxPoint x="2510" y="1170" as="sourcePoint"/>
                        <mxPoint x="2560" y="1120" as="targetPoint"/>
                    </mxGeometry>
                </mxCell>
                <mxCell id="66" value="4" style="ellipse;whiteSpace=wrap;html=1;aspect=fixed;" parent="1" vertex="1">
                    <mxGeometry x="3130" y="1020" width="60" height="60" as="geometry"/>
                </mxCell>
                <mxCell id="67" value="" style="endArrow=classic;html=1;exitX=0;exitY=1;exitDx=0;exitDy=0;entryX=0.951;entryY=0.003;entryDx=0;entryDy=0;entryPerimeter=0;" parent="1" source="66" target="70" edge="1">
                    <mxGeometry width="50" height="50" relative="1" as="geometry">
                        <mxPoint x="3330" y="1110" as="sourcePoint"/>
                        <mxPoint x="2880" y="1140" as="targetPoint"/>
                    </mxGeometry>
                </mxCell>
                <mxCell id="68" value="" style="endArrow=classic;html=1;exitX=1;exitY=1;exitDx=0;exitDy=0;entryX=0;entryY=0;entryDx=0;entryDy=0;" parent="1" source="66" target="71" edge="1">
                    <mxGeometry width="50" height="50" relative="1" as="geometry">
                        <mxPoint x="3330" y="1110" as="sourcePoint"/>
                        <mxPoint x="3020" y="1140" as="targetPoint"/>
                    </mxGeometry>
                </mxCell>
                <mxCell id="69" value="" style="endArrow=classic;html=1;exitX=0.5;exitY=1;exitDx=0;exitDy=0;entryX=0.5;entryY=0;entryDx=0;entryDy=0;" parent="1" source="54" target="66" edge="1">
                    <mxGeometry width="50" height="50" relative="1" as="geometry">
                        <mxPoint x="2510" y="1210" as="sourcePoint"/>
                        <mxPoint x="2560" y="1160" as="targetPoint"/>
                        <Array as="points">
                            <mxPoint x="3160" y="990"/>
                        </Array>
                    </mxGeometry>
                </mxCell>
                <mxCell id="70" value="generateTree(3,3)" style="rounded=1;whiteSpace=wrap;html=1;" parent="1" vertex="1">
                    <mxGeometry x="2930" y="1140" width="170" height="80" as="geometry"/>
                </mxCell>
                <mxCell id="71" value="generateTree(5,4) = [NULL]" style="rounded=1;whiteSpace=wrap;html=1;" parent="1" vertex="1">
                    <mxGeometry x="3230" y="1140" width="170" height="80" as="geometry"/>
                </mxCell>
                <mxCell id="73" value="3" style="ellipse;whiteSpace=wrap;html=1;aspect=fixed;" parent="1" vertex="1">
                    <mxGeometry x="2985" y="1240" width="60" height="60" as="geometry"/>
                </mxCell>
                <mxCell id="74" value="" style="endArrow=classic;html=1;exitX=0;exitY=1;exitDx=0;exitDy=0;" parent="1" source="73" edge="1">
                    <mxGeometry width="50" height="50" relative="1" as="geometry">
                        <mxPoint x="3395" y="1330" as="sourcePoint"/>
                        <mxPoint x="2945" y="1360" as="targetPoint"/>
                    </mxGeometry>
                </mxCell>
                <mxCell id="75" value="" style="endArrow=classic;html=1;exitX=1;exitY=1;exitDx=0;exitDy=0;" parent="1" source="73" edge="1">
                    <mxGeometry width="50" height="50" relative="1" as="geometry">
                        <mxPoint x="3395" y="1330" as="sourcePoint"/>
                        <mxPoint x="3085" y="1360" as="targetPoint"/>
                    </mxGeometry>
                </mxCell>
                <mxCell id="76" value="generateTree(3,2) = [NULL]" style="rounded=1;whiteSpace=wrap;html=1;" parent="1" vertex="1">
                    <mxGeometry x="2780" y="1360" width="170" height="80" as="geometry"/>
                </mxCell>
                <mxCell id="77" value="generateTree(4,3) = [NULL]" style="rounded=1;whiteSpace=wrap;html=1;" parent="1" vertex="1">
                    <mxGeometry x="3080" y="1360" width="170" height="80" as="geometry"/>
                </mxCell>
                <mxCell id="78" value="" style="endArrow=classic;html=1;exitX=0.5;exitY=1;exitDx=0;exitDy=0;entryX=0.5;entryY=0;entryDx=0;entryDy=0;" parent="1" source="48" target="50" edge="1">
                    <mxGeometry width="50" height="50" relative="1" as="geometry">
                        <mxPoint x="2850" y="880" as="sourcePoint"/>
                        <mxPoint x="3000" y="870" as="targetPoint"/>
                    </mxGeometry>
                </mxCell>
                <mxCell id="79" value="" style="endArrow=classic;html=1;exitX=0.5;exitY=1;exitDx=0;exitDy=0;entryX=0.5;entryY=0;entryDx=0;entryDy=0;" parent="1" source="70" target="73" edge="1">
                    <mxGeometry width="50" height="50" relative="1" as="geometry">
                        <mxPoint x="2950" y="1190" as="sourcePoint"/>
                        <mxPoint x="3000" y="1140" as="targetPoint"/>
                    </mxGeometry>
                </mxCell>
                <mxCell id="80" value="" style="endArrow=classic;html=1;exitX=0.5;exitY=1;exitDx=0;exitDy=0;entryX=0.5;entryY=0;entryDx=0;entryDy=0;" parent="1" source="59" target="60" edge="1">
                    <mxGeometry width="50" height="50" relative="1" as="geometry">
                        <mxPoint x="2950" y="1190" as="sourcePoint"/>
                        <mxPoint x="3000" y="1140" as="targetPoint"/>
                    </mxGeometry>
                </mxCell>
                <mxCell id="96" value="3" style="ellipse;whiteSpace=wrap;html=1;aspect=fixed;" parent="1" vertex="1">
                    <mxGeometry x="3840" y="820" width="60" height="60" as="geometry"/>
                </mxCell>
                <mxCell id="97" value="" style="endArrow=classic;html=1;exitX=0;exitY=1;exitDx=0;exitDy=0;" parent="1" source="96" edge="1">
                    <mxGeometry width="50" height="50" relative="1" as="geometry">
                        <mxPoint x="4250" y="910" as="sourcePoint"/>
                        <mxPoint x="3800" y="940" as="targetPoint"/>
                    </mxGeometry>
                </mxCell>
                <mxCell id="98" value="" style="endArrow=classic;html=1;exitX=1;exitY=1;exitDx=0;exitDy=0;entryX=0;entryY=0;entryDx=0;entryDy=0;" parent="1" source="96" edge="1" target="101">
                    <mxGeometry width="50" height="50" relative="1" as="geometry">
                        <mxPoint x="4250" y="910" as="sourcePoint"/>
                        <mxPoint x="3940" y="940" as="targetPoint"/>
                        <Array as="points">
                            <mxPoint x="3950" y="930"/>
                        </Array>
                    </mxGeometry>
                </mxCell>
                <mxCell id="99" value="" style="endArrow=classic;html=1;exitX=0.5;exitY=1;exitDx=0;exitDy=0;entryX=0.5;entryY=0;entryDx=0;entryDy=0;" parent="1" source="48" target="96" edge="1">
                    <mxGeometry width="50" height="50" relative="1" as="geometry">
                        <mxPoint x="3010" y="880" as="sourcePoint"/>
                        <mxPoint x="3060" y="830" as="targetPoint"/>
                        <Array as="points">
                            <mxPoint x="3830" y="760"/>
                            <mxPoint x="3870" y="770"/>
                        </Array>
                    </mxGeometry>
                </mxCell>
                <mxCell id="100" value="generateTree(2,2)" style="rounded=1;whiteSpace=wrap;html=1;" parent="1" vertex="1">
                    <mxGeometry x="3640" y="940" width="170" height="80" as="geometry"/>
                </mxCell>
                <mxCell id="101" value="generateTree(4,4)" style="rounded=1;whiteSpace=wrap;html=1;" parent="1" vertex="1">
                    <mxGeometry x="4380" y="950" width="170" height="80" as="geometry"/>
                </mxCell>
                <mxCell id="102" value="4" style="ellipse;whiteSpace=wrap;html=1;aspect=fixed;" parent="1" vertex="1">
                    <mxGeometry x="4435" y="1060" width="60" height="60" as="geometry"/>
                </mxCell>
                <mxCell id="103" value="" style="endArrow=classic;html=1;exitX=0;exitY=1;exitDx=0;exitDy=0;" parent="1" source="102" edge="1">
                    <mxGeometry width="50" height="50" relative="1" as="geometry">
                        <mxPoint x="4845" y="1130" as="sourcePoint"/>
                        <mxPoint x="4395" y="1160" as="targetPoint"/>
                    </mxGeometry>
                </mxCell>
                <mxCell id="104" value="" style="endArrow=classic;html=1;exitX=1;exitY=1;exitDx=0;exitDy=0;" parent="1" source="102" edge="1">
                    <mxGeometry width="50" height="50" relative="1" as="geometry">
                        <mxPoint x="4845" y="1130" as="sourcePoint"/>
                        <mxPoint x="4535" y="1160" as="targetPoint"/>
                    </mxGeometry>
                </mxCell>
                <mxCell id="105" value="2" style="ellipse;whiteSpace=wrap;html=1;aspect=fixed;" vertex="1" parent="1">
                    <mxGeometry x="3695" y="1040" width="60" height="60" as="geometry"/>
                </mxCell>
                <mxCell id="107" value="" style="endArrow=classic;html=1;exitX=1;exitY=1;exitDx=0;exitDy=0;entryX=0;entryY=0;entryDx=0;entryDy=0;" edge="1" parent="1" source="105" target="109">
                    <mxGeometry width="50" height="50" relative="1" as="geometry">
                        <mxPoint x="4105" y="1130" as="sourcePoint"/>
                        <mxPoint x="3795" y="1160" as="targetPoint"/>
                    </mxGeometry>
                </mxCell>
                <mxCell id="108" value="generateTree(2,1) = [NULL]" style="rounded=1;whiteSpace=wrap;html=1;" vertex="1" parent="1">
                    <mxGeometry x="3480" y="1140" width="170" height="80" as="geometry"/>
                </mxCell>
                <mxCell id="109" value="generateTree(3,2) = [NULL]" style="rounded=1;whiteSpace=wrap;html=1;" vertex="1" parent="1">
                    <mxGeometry x="3770" y="1140" width="170" height="80" as="geometry"/>
                </mxCell>
                <mxCell id="110" value="" style="endArrow=classic;html=1;entryX=1;entryY=0;entryDx=0;entryDy=0;exitX=0;exitY=1;exitDx=0;exitDy=0;" edge="1" parent="1" source="105" target="108">
                    <mxGeometry width="50" height="50" relative="1" as="geometry">
                        <mxPoint x="3670" y="1090" as="sourcePoint"/>
                        <mxPoint x="3930" y="1200" as="targetPoint"/>
                    </mxGeometry>
                </mxCell>
                <mxCell id="111" value="generateTree(4,3) = [NULL]" style="rounded=1;whiteSpace=wrap;html=1;" vertex="1" parent="1">
                    <mxGeometry x="4230" y="1160" width="170" height="80" as="geometry"/>
                </mxCell>
                <mxCell id="112" value="generateTree(5,4) = [NULL]" style="rounded=1;whiteSpace=wrap;html=1;" vertex="1" parent="1">
                    <mxGeometry x="4530" y="1160" width="180" height="80" as="geometry"/>
                </mxCell>
                <mxCell id="113" value="" style="endArrow=classic;html=1;exitX=0.5;exitY=1;exitDx=0;exitDy=0;entryX=0.5;entryY=0;entryDx=0;entryDy=0;" edge="1" parent="1" source="100" target="105">
                    <mxGeometry width="50" height="50" relative="1" as="geometry">
                        <mxPoint x="3950" y="1060" as="sourcePoint"/>
                        <mxPoint x="4000" y="1010" as="targetPoint"/>
                    </mxGeometry>
                </mxCell>
                <mxCell id="114" value="" style="endArrow=classic;html=1;exitX=0.5;exitY=1;exitDx=0;exitDy=0;entryX=0.5;entryY=0;entryDx=0;entryDy=0;" edge="1" parent="1" source="101" target="102">
                    <mxGeometry width="50" height="50" relative="1" as="geometry">
                        <mxPoint x="3950" y="1060" as="sourcePoint"/>
                        <mxPoint x="4000" y="1010" as="targetPoint"/>
                    </mxGeometry>
                </mxCell>
                <mxCell id="115" value="" style="endArrow=classic;html=1;exitX=0;exitY=1;exitDx=0;exitDy=0;entryX=0.5;entryY=0;entryDx=0;entryDy=0;" edge="1" parent="1" source="2" target="13">
                    <mxGeometry width="50" height="50" relative="1" as="geometry">
                        <mxPoint x="2410" y="460" as="sourcePoint"/>
                        <mxPoint x="2070" y="500" as="targetPoint"/>
                        <Array as="points">
                            <mxPoint x="2060" y="500"/>
                        </Array>
                    </mxGeometry>
                </mxCell>
                <mxCell id="116" value="" style="endArrow=classic;html=1;exitX=0;exitY=0.5;exitDx=0;exitDy=0;entryX=0.5;entryY=0;entryDx=0;entryDy=0;" edge="1" parent="1" source="2" target="44">
                    <mxGeometry width="50" height="50" relative="1" as="geometry">
                        <mxPoint x="2920" y="830" as="sourcePoint"/>
                        <mxPoint x="2010" y="2033" as="targetPoint"/>
                        <Array as="points">
                            <mxPoint x="1700" y="460"/>
                            <mxPoint x="1670" y="1980"/>
                        </Array>
                    </mxGeometry>
                </mxCell>
                <mxCell id="120" value="generateTree(1,1) = [NULL]" style="rounded=1;whiteSpace=wrap;html=1;" vertex="1" parent="1">
                    <mxGeometry x="1900" y="2100" width="170" height="80" as="geometry"/>
                </mxCell>
                <mxCell id="121" value="generateTree(3,4) = [NULL]" style="rounded=1;whiteSpace=wrap;html=1;" vertex="1" parent="1">
                    <mxGeometry x="2205" y="2100" width="170" height="80" as="geometry"/>
                </mxCell>
            </root>
        </mxGraphModel>
    </diagram>
</mxfile>